<?xml version="1.0" encoding="utf-8" standalone="yes"?>
<!DOCTYPE svg PUBLIC "-//W3C//DTD SVG 1.1//EN" "http://www.w3.org/Graphics/SVG/1.1/DTD/svg11.dtd">
<svg width="866" height="190" viewBox="0 0 866 190" style="fill:none;stroke:none;fill-rule:evenodd;clip-rule:evenodd;stroke-linecap:round;stroke-linejoin:round;stroke-miterlimit:1.5;" version="1.1" xmlns="http://www.w3.org/2000/svg" xmlns:xlink="http://www.w3.org/1999/xlink"><style id="fontImports">@import url("https://fonts.googleapis.com/css2?family=Roboto:wght@400;700&amp;display=block");</style><g id="items" style="isolation: isolate"><g id="blend" style="mix-blend-mode:screen"><g id="g-root-ro_18gb6ao18zku0x-fill" data-item-order="-18720" data-item-id="ro_18gb6ao18zku0x" data-item-class="Shape Stroke Fill" data-item-index="none" data-renderer-id="0" transform="translate(227, 25)"><g id="ro_18gb6ao18zku0x-fill" stroke="none" fill="#224754"><g><path d="M 22 10L 154 10C 154 10 166 10 166 22L 166 118C 166 118 166 130 154 130L 22 130C 22 130 10 130 10 118L 10 22C 10 22 10 10 22 10"></path></g></g></g><g id="g-root-ro_1lw509s18zkv0n-fill" data-item-order="-12960" data-item-id="ro_1lw509s18zkv0n" data-item-class="Shape Stroke Fill" data-item-index="none" data-renderer-id="0" transform="translate(439, 3)"><g id="ro_1lw509s18zkv0n-fill" stroke="none" fill="#224754"><g><path d="M 22 10L 178 10C 178 10 190 10 190 22L 190 70C 190 70 190 82 178 82L 22 82C 22 82 10 82 10 70L 10 22C 10 22 10 10 22 10"></path></g></g></g><g id="g-root-ro_1lr57kw18zm8zx-fill" data-item-order="-12960" data-item-id="ro_1lr57kw18zm8zx" data-item-class="Shape Stroke Fill" data-item-index="none" data-renderer-id="0" transform="translate(439, 95)"><g id="ro_1lr57kw18zm8zx-fill" stroke="none" fill="#224754"><g><path d="M 22 10L 178 10C 178 10 190 10 190 22L 190 70C 190 70 190 82 178 82L 22 82C 22 82 10 82 10 70L 10 22C 10 22 10 10 22 10"></path></g></g></g><g id="g-root-ro_4maysg18zm70j-fill" data-item-order="-12096" data-item-id="ro_4maysg18zm70j" data-item-class="Shape Stroke Fill" data-item-index="none" data-renderer-id="0" transform="translate(675, 49)"><g id="ro_4maysg18zm70j-fill" stroke="none" fill="#224754"><g><path d="M 22 10L 166 10C 166 10 178 10 178 22L 178 70C 178 70 178 82 166 82L 22 82C 22 82 10 82 10 70L 10 22C 10 22 10 10 22 10"></path></g></g></g><g id="g-root-ro_zpnyqo18zjgub-fill" data-item-order="-12096" data-item-id="ro_zpnyqo18zjgub" data-item-class="Shape Stroke Fill" data-item-index="none" data-renderer-id="0" transform="translate(3, 49)"><g id="ro_zpnyqo18zjgub-fill" stroke="none" fill="#505050"><g><path d="M 22 10L 166 10C 166 10 178 10 178 22L 178 70C 178 70 178 82 166 82L 22 82C 22 82 10 82 10 70L 10 22C 10 22 10 10 22 10"></path></g></g></g><g id="g-root-gath_1ums7ts18zm878-fill" data-item-order="0" data-item-id="gath_1ums7ts18zm878" data-item-class="Icon Stroke" data-item-index="none" data-renderer-id="0" transform="translate(451, 116)"></g><g id="g-root-tx_communit_1hnz418zm7m3-fill" data-item-order="0" data-item-id="tx_communit_1hnz418zm7m3" data-item-class="Label Stroke" data-item-index="none" data-renderer-id="0" transform="translate(487, 107)"><g id="tx_communit_1hnz418zm7m3-fill" stroke="none" fill="#1AC6FF"><g><text style="font: 20px Roboto, sans-serif; white-space: pre;"><tspan x="12" y="34" dominant-baseline="ideographic">Community </tspan><tspan x="12" y="58" dominant-baseline="ideographic">Engagement</tspan></text></g></g></g><g id="g-root-tx_decision_1d14h4018zjf9d-fill" data-item-order="0" data-item-id="tx_decision_1d14h4018zjf9d" data-item-class="Label Stroke" data-item-index="none" data-renderer-id="0" transform="translate(51, 61)"><g id="tx_decision_1d14h4018zjf9d-fill" stroke="none" fill="#A3A3A3"><g><text style="font: 20px Roboto, sans-serif; white-space: pre;"><tspan x="12" y="34" dominant-baseline="ideographic">Decision to </tspan><tspan x="12" y="58" dominant-baseline="ideographic">List NFT</tspan></text></g></g></g><g id="g-root-tx_leverage_1hby6jk18zksgf-fill" data-item-order="0" data-item-id="tx_leverage_1hby6jk18zksgf" data-item-class="Label Stroke" data-item-index="none" data-renderer-id="0" transform="translate(275, 37)"><g id="tx_leverage_1hby6jk18zksgf-fill" stroke="none" fill="#1AC6FF"><g><text style="font: 20px Roboto, sans-serif; white-space: pre;"><tspan x="12" y="34" dominant-baseline="ideographic">Leverage </tspan><tspan x="12" y="58" dominant-baseline="ideographic">Unique </tspan><tspan x="12" y="82" dominant-baseline="ideographic">Game </tspan><tspan x="12" y="106" dominant-baseline="ideographic">Format</tspan></text></g></g></g><g id="g-root-1_1cw4of418zkt8o-fill" data-item-order="0" data-item-id="1_1cw4of418zkt8o" data-item-class="Icon Stroke" data-item-index="none" data-renderer-id="0" transform="translate(239, 70)"></g><g id="g-root-mous_91hzts18zm9e2-fill" data-item-order="0" data-item-id="mous_91hzts18zm9e2" data-item-class="Icon Stroke" data-item-index="none" data-renderer-id="0" transform="translate(687, 70)"></g><g id="g-root-tx_maximize_hx502o18zm8ld-fill" data-item-order="0" data-item-id="tx_maximize_hx502o18zm8ld" data-item-class="Label Stroke" data-item-index="none" data-renderer-id="0" transform="translate(723, 61)"><g id="tx_maximize_hx502o18zm8ld-fill" stroke="none" fill="#1AC6FF"><g><text style="font: 20px Roboto, sans-serif; white-space: pre;"><tspan x="12" y="34" dominant-baseline="ideographic">Maximized </tspan><tspan x="12" y="58" dominant-baseline="ideographic">Profits</tspan></text></g></g></g><g id="g-root-1_1lw509s18zkv0m-fill" data-item-order="0" data-item-id="1_1lw509s18zkv0m" data-item-class="Icon Stroke" data-item-index="none" data-renderer-id="0" transform="translate(451, 24)"></g><g id="g-root-tx_increase_1qbyie818zku8d-fill" data-item-order="0" data-item-id="tx_increase_1qbyie818zku8d" data-item-class="Label Stroke" data-item-index="none" data-renderer-id="0" transform="translate(487, 15)"><g id="tx_increase_1qbyie818zku8d-fill" stroke="none" fill="#1AC6FF"><g><text style="font: 20px Roboto, sans-serif; white-space: pre;"><tspan x="12" y="34" dominant-baseline="ideographic">Increased </tspan><tspan x="12" y="58" dominant-baseline="ideographic">Visibility</tspan></text></g></g></g><g id="g-root-scre_145hgv418zjg22-fill" data-item-order="0" data-item-id="scre_145hgv418zjg22" data-item-class="Icon Stroke" data-item-index="none" data-renderer-id="0" transform="translate(15, 70)"></g><g id="g-root-cu_18layzk18zm7lw-fill" data-item-order="2" data-item-id="cu_18layzk18zm7lw" data-item-class="Curve Stroke" data-item-index="none" data-renderer-id="0" transform="translate(383, 39)"></g><g id="g-root-cu_1d0i00w18zm9zb-fill" data-item-order="2" data-item-id="cu_1d0i00w18zm9zb" data-item-class="Curve Stroke" data-item-index="none" data-renderer-id="0" transform="translate(619, 39)"></g><g id="g-root-cu_18layzk18zm7ly-fill" data-item-order="2" data-item-id="cu_18layzk18zm7ly" data-item-class="Curve Stroke" data-item-index="none" data-renderer-id="0" transform="translate(171, 85)"></g><g id="g-root-cu_1d0i00w18zm9zd-fill" data-item-order="2" data-item-id="cu_1d0i00w18zm9zd" data-item-class="Curve Stroke" data-item-index="none" data-renderer-id="0" transform="translate(383, 85)"></g><g id="g-root-cu_1d0i00w18zm9z8-fill" data-item-order="2" data-item-id="cu_1d0i00w18zm9z8" data-item-class="Curve Stroke" data-item-index="none" data-renderer-id="0" transform="translate(619, 85)"></g><g id="g-root-ro_18gb6ao18zku0x-stroke" data-item-order="-18720" data-item-id="ro_18gb6ao18zku0x" data-item-class="Shape Stroke Fill" data-item-index="none" data-renderer-id="0" transform="translate(227, 25)"><g id="ro_18gb6ao18zku0x-stroke" fill="none" stroke-linecap="round" stroke-linejoin="round" stroke-miterlimit="4" stroke="#1AC6FF" stroke-width="2"><g><path d="M 22 10L 154 10C 154 10 166 10 166 22L 166 118C 166 118 166 130 154 130L 22 130C 22 130 10 130 10 118L 10 22C 10 22 10 10 22 10"></path></g></g></g><g id="g-root-ro_1lw509s18zkv0n-stroke" data-item-order="-12960" data-item-id="ro_1lw509s18zkv0n" data-item-class="Shape Stroke Fill" data-item-index="none" data-renderer-id="0" transform="translate(439, 3)"><g id="ro_1lw509s18zkv0n-stroke" fill="none" stroke-linecap="round" stroke-linejoin="round" stroke-miterlimit="4" stroke="#1AC6FF" stroke-width="2"><g><path d="M 22 10L 178 10C 178 10 190 10 190 22L 190 70C 190 70 190 82 178 82L 22 82C 22 82 10 82 10 70L 10 22C 10 22 10 10 22 10"></path></g></g></g><g id="g-root-ro_1lr57kw18zm8zx-stroke" data-item-order="-12960" data-item-id="ro_1lr57kw18zm8zx" data-item-class="Shape Stroke Fill" data-item-index="none" data-renderer-id="0" transform="translate(439, 95)"><g id="ro_1lr57kw18zm8zx-stroke" fill="none" stroke-linecap="round" stroke-linejoin="round" stroke-miterlimit="4" stroke="#1AC6FF" stroke-width="2"><g><path d="M 22 10L 178 10C 178 10 190 10 190 22L 190 70C 190 70 190 82 178 82L 22 82C 22 82 10 82 10 70L 10 22C 10 22 10 10 22 10"></path></g></g></g><g id="g-root-ro_4maysg18zm70j-stroke" data-item-order="-12096" data-item-id="ro_4maysg18zm70j" data-item-class="Shape Stroke Fill" data-item-index="none" data-renderer-id="0" transform="translate(675, 49)"><g id="ro_4maysg18zm70j-stroke" fill="none" stroke-linecap="round" stroke-linejoin="round" stroke-miterlimit="4" stroke="#1AC6FF" stroke-width="2"><g><path d="M 22 10L 166 10C 166 10 178 10 178 22L 178 70C 178 70 178 82 166 82L 22 82C 22 82 10 82 10 70L 10 22C 10 22 10 10 22 10"></path></g></g></g><g id="g-root-ro_zpnyqo18zjgub-stroke" data-item-order="-12096" data-item-id="ro_zpnyqo18zjgub" data-item-class="Shape Stroke Fill" data-item-index="none" data-renderer-id="0" transform="translate(3, 49)"><g id="ro_zpnyqo18zjgub-stroke" fill="none" stroke-linecap="round" stroke-linejoin="round" stroke-miterlimit="4" stroke="#A3A3A3" stroke-width="2"><g><path d="M 22 10L 166 10C 166 10 178 10 178 22L 178 70C 178 70 178 82 166 82L 22 82C 22 82 10 82 10 70L 10 22C 10 22 10 10 22 10"></path></g></g></g><g id="g-root-gath_1ums7ts18zm878-stroke" data-item-order="0" data-item-id="gath_1ums7ts18zm878" data-item-class="Icon Stroke" data-item-index="none" data-renderer-id="0" transform="translate(451, 116)"><g id="gath_1ums7ts18zm878-stroke" fill="none" stroke-linecap="round" stroke-linejoin="round" stroke-miterlimit="4" stroke="#1AC6FF" stroke-width="2"><g><path d="M 10.625 23.125L 20.625 23.125C 22.005713 23.125 23.125 24.244287 23.125 25.625L 23.125 31.25C 23.125 32.975891 21.725889 34.375 20 34.375L 20 34.375L 20 35.625C 20 36.315353 19.440355 36.875 18.75 36.875L 15.3125 36.875L 12.1875 34.375L 10.625 34.375M 25 13.125L 25 16.875M 32.501251 16.237499L 29.848749 18.88875M 17.494999 16.227499L 20.147499 18.880001M 20.39625 30.03875C 20.431858 29.571608 20.266438 29.111465 19.941544 28.773922C 19.616652 28.436377 19.163164 28.253506 18.695 28.271252C 17.0525 28.27125 16.25 29.35125 16.25 31.25C 16.263432 32.129997 16.640537 32.965172 17.291758 33.55719C 17.942978 34.149212 18.810211 34.445248 19.6875 34.375L 20 34.375M 39.375 23.125L 29.375 23.125C 27.994287 23.125 26.875 24.244287 26.875 25.625L 26.875 31.25C 26.875 32.975891 28.274111 34.375 30 34.375L 30 34.375L 30 35.625C 30 36.315353 30.559645 36.875 31.25 36.875L 34.6875 36.875L 37.8125 34.375L 39.375 34.375M 29.60375 30.03875C 29.568142 29.571608 29.733564 29.111465 30.058456 28.773922C 30.383348 28.436377 30.836838 28.253506 31.305 28.271252C 32.947498 28.27125 33.75 29.35125 33.75 31.25C 33.736568 32.129997 33.359463 32.965172 32.708241 33.55719C 32.057022 34.149212 31.189789 34.445248 30.3125 34.375L 30 34.375"></path></g></g></g><g id="g-root-tx_communit_1hnz418zm7m3-stroke" data-item-order="0" data-item-id="tx_communit_1hnz418zm7m3" data-item-class="Label Stroke" data-item-index="none" data-renderer-id="0" transform="translate(487, 107)"></g><g id="g-root-tx_decision_1d14h4018zjf9d-stroke" data-item-order="0" data-item-id="tx_decision_1d14h4018zjf9d" data-item-class="Label Stroke" data-item-index="none" data-renderer-id="0" transform="translate(51, 61)"></g><g id="g-root-tx_leverage_1hby6jk18zksgf-stroke" data-item-order="0" data-item-id="tx_leverage_1hby6jk18zksgf" data-item-class="Label Stroke" data-item-index="none" data-renderer-id="0" transform="translate(275, 37)"></g><g id="g-root-1_1cw4of418zkt8o-stroke" data-item-order="0" data-item-id="1_1cw4of418zkt8o" data-item-class="Icon Stroke" data-item-index="none" data-renderer-id="0" transform="translate(239, 70)"><g id="1_1cw4of418zkt8o-stroke" fill="none" stroke-linecap="round" stroke-linejoin="round" stroke-miterlimit="4" stroke="#1AC6FF" stroke-width="2"><g><path d="M 15.785714 14.285714C 14.53366 14.279984 13.331231 14.774826 12.445886 15.660171C 11.56054 16.545517 11.065699 17.747946 11.071428 19L 11.071428 31.42857C 11.071428 33.795506 12.990208 35.714287 15.357142 35.714287C 17.161802 35.706535 18.65151 34.301151 18.764286 32.5C 18.887852 30.695465 20.384109 29.292723 22.192858 29.285713L 27.807142 29.285713C 29.615889 29.292723 31.112148 30.695465 31.235714 32.5C 31.348488 34.301151 32.838196 35.706535 34.642857 35.714287C 37.009792 35.714287 38.92857 33.795506 38.92857 31.42857L 38.92857 19C 38.934299 17.747946 38.439457 16.545517 37.554111 15.660171C 36.66877 14.774826 35.466339 14.279984 34.214287 14.285714ZM 15.357142 21.785713L 20.714285 21.785713M 18.035713 19.107143L 18.035713 24.464285M 30.357141 21.785713C 30.357141 22.377447 30.836838 22.857143 31.42857 22.857143C 32.020306 22.857143 32.5 22.377447 32.5 21.785713C 32.5 21.193979 32.020306 20.714285 31.42857 20.714285C 30.836838 20.714285 30.357141 21.193979 30.357141 21.785713"></path></g></g></g><g id="g-root-mous_91hzts18zm9e2-stroke" data-item-order="0" data-item-id="mous_91hzts18zm9e2" data-item-class="Icon Stroke" data-item-index="none" data-renderer-id="0" transform="translate(687, 70)"><g id="mous_91hzts18zm9e2-stroke" fill="none" stroke-linecap="round" stroke-linejoin="round" stroke-miterlimit="4" stroke="#1AC6FF" stroke-width="2"><g><path d="M 10.63 15.625L 35.630001 15.625M 14.0675 12.8125C 13.894911 12.8125 13.755 12.952411 13.755 13.125C 13.755 13.297589 13.894911 13.4375 14.0675 13.4375C 14.240089 13.4375 14.38 13.297589 14.38 13.125C 14.38 12.952411 14.240089 12.8125 14.0675 12.8125L 14.0675 12.8125M 17.192501 12.8125C 17.06567 12.810471 16.950195 12.885308 16.900248 13.001906C 16.8503 13.118504 16.875786 13.253728 16.964754 13.344142C 17.053722 13.434556 17.188517 13.462221 17.305904 13.41416C 17.423292 13.366098 17.499985 13.251846 17.5 13.125C 17.5 12.952411 17.360088 12.8125 17.1875 12.8125L 17.1875 12.8125M 20.317499 12.8125C 20.144911 12.8125 20.004999 12.952411 20.004999 13.125C 20.004999 13.297589 20.144911 13.4375 20.317499 13.4375C 20.490089 13.4375 20.629999 13.297589 20.629999 13.125C 20.629999 12.952411 20.490089 12.8125 20.317499 12.8125L 20.317499 12.8125M 21.875 29.375L 13.125 29.375C 11.744288 29.375 10.625 28.255713 10.625 26.875L 10.625 13.125C 10.625 11.744288 11.744288 10.625 13.125 10.625L 33.125 10.625C 34.505714 10.625 35.625 11.744288 35.625 13.125L 35.625 18.125M 33.75 25L 35.715 21.559999C 35.825478 21.36659 35.824677 21.129 35.712894 20.93634C 35.601109 20.743679 35.395241 20.625072 35.172501 20.625L 28.5825 20.625C 28.359537 20.624626 28.153259 20.743057 28.04117 20.935799C 27.929081 21.128538 27.92816 21.366396 28.03875 21.559999L 30 25C 29.012501 25.64625 24.375 27.389999 24.375 32.5C 24.435764 34.39537 25.251308 36.187901 26.640278 37.478985C 28.029247 38.770065 29.876495 39.452667 31.77125 39.374996C 35.75 39.375 39.375 36.470001 39.375 32.5C 39.375 27.584999 34.8325 25.83625 33.75 25ZM 31.879999 34.375L 31.879999 35.625M 31.879999 28.125L 31.879999 29.375M 29.375 34.375L 33.125 34.375C 33.815353 34.375 34.375 33.815353 34.375 33.125C 34.375 32.434647 33.815353 31.875 33.125 31.875L 30.625 31.875C 29.934643 31.875 29.375 31.315355 29.375 30.625C 29.375 29.934643 29.934643 29.375 30.625 29.375L 34.375 29.375"></path></g></g></g><g id="g-root-tx_maximize_hx502o18zm8ld-stroke" data-item-order="0" data-item-id="tx_maximize_hx502o18zm8ld" data-item-class="Label Stroke" data-item-index="none" data-renderer-id="0" transform="translate(723, 61)"></g><g id="g-root-1_1lw509s18zkv0m-stroke" data-item-order="0" data-item-id="1_1lw509s18zkv0m" data-item-class="Icon Stroke" data-item-index="none" data-renderer-id="0" transform="translate(451, 24)"><g id="1_1lw509s18zkv0m-stroke" fill="none" stroke-linecap="round" stroke-linejoin="round" stroke-miterlimit="4" stroke="#1AC6FF" stroke-width="2"><g><path d="M 10.625 23.123749C 10.625 30.027309 16.221441 35.623749 23.125 35.623749C 30.028561 35.623749 35.625 30.027309 35.625 23.123751C 35.625 16.22019 30.028561 10.62375 23.125 10.62375C 16.221441 10.62375 10.625 16.22019 10.625 23.123751ZM 39.375 39.373749L 31.963749 31.9625M 16.875 23.123749L 29.375 23.123749M 23.125 16.873751L 23.125 29.373749"></path></g></g></g><g id="g-root-tx_increase_1qbyie818zku8d-stroke" data-item-order="0" data-item-id="tx_increase_1qbyie818zku8d" data-item-class="Label Stroke" data-item-index="none" data-renderer-id="0" transform="translate(487, 15)"></g><g id="g-root-scre_145hgv418zjg22-stroke" data-item-order="0" data-item-id="scre_145hgv418zjg22" data-item-class="Icon Stroke" data-item-index="none" data-renderer-id="0" transform="translate(15, 70)"><g id="scre_145hgv418zjg22-stroke" fill="none" stroke-linecap="round" stroke-linejoin="round" stroke-miterlimit="4" stroke="#A3A3A3" stroke-width="2"><g><path d="M 13.214286 30.357141L 13.214286 13.214286C 13.214286 12.030818 14.173676 11.071428 15.357142 11.071428L 34.642857 11.071428C 35.826324 11.071428 36.785713 12.030818 36.785713 13.214286L 36.785713 30.357141M 19.128572 30.357141L 30.828571 22.042856C 31.312239 21.708902 31.952045 21.708902 32.435715 22.042858L 36.785713 25M 18.571428 19.107143C 18.571428 20.586477 19.770666 21.785713 21.25 21.785713C 22.729334 21.785713 23.928572 20.586477 23.928572 19.107143C 23.928572 17.62781 22.729334 16.428572 21.25 16.428572C 19.770666 16.428572 18.571428 17.62781 18.571428 19.107143M 11.071428 30.357141L 38.92857 30.357141M 25 30.357141L 25 38.92857M 21.785713 30.357141L 15.357142 38.92857M 28.214285 30.357141L 34.642857 38.92857"></path></g></g></g><g id="g-root-cu_18layzk18zm7lw-stroke" data-item-order="2" data-item-id="cu_18layzk18zm7lw" data-item-class="Curve Stroke" data-item-index="none" data-renderer-id="0" transform="translate(383, 39)"><g id="cu_18layzk18zm7lw-stroke" fill="none" stroke-linecap="round" stroke-linejoin="round" stroke-miterlimit="4" stroke="#A3A3A3" stroke-width="2"><g><path d="M 10 56L 24 56L 38 56L 38 33L 38 10L 52 10L 64 10"></path><path d="M 58 16.5L 64.5 10L 58 3.5" stroke-dasharray="none"></path></g></g></g><g id="g-root-cu_1d0i00w18zm9zb-stroke" data-item-order="2" data-item-id="cu_1d0i00w18zm9zb" data-item-class="Curve Stroke" data-item-index="none" data-renderer-id="0" transform="translate(619, 39)"><g id="cu_1d0i00w18zm9zb-stroke" fill="none" stroke-linecap="round" stroke-linejoin="round" stroke-miterlimit="4" stroke="#A3A3A3" stroke-width="2"><g><path d="M 10 10L 24 10L 38 10L 38 33L 38 56L 52 56L 64 56"></path><path d="M 58 62.5L 64.5 56L 58 49.5" stroke-dasharray="none"></path></g></g></g><g id="g-root-cu_18layzk18zm7ly-stroke" data-item-order="2" data-item-id="cu_18layzk18zm7ly" data-item-class="Curve Stroke" data-item-index="none" data-renderer-id="0" transform="translate(171, 85)"><g id="cu_18layzk18zm7ly-stroke" fill="none" stroke-linecap="round" stroke-linejoin="round" stroke-miterlimit="4" stroke="#A3A3A3" stroke-width="2"><g><path d="M 10 10L 38 10L 64 10"></path><path d="M 58 16.5L 64.5 10L 58 3.5" stroke-dasharray="none"></path></g></g></g><g id="g-root-cu_1d0i00w18zm9zd-stroke" data-item-order="2" data-item-id="cu_1d0i00w18zm9zd" data-item-class="Curve Stroke" data-item-index="none" data-renderer-id="0" transform="translate(383, 85)"><g id="cu_1d0i00w18zm9zd-stroke" fill="none" stroke-linecap="round" stroke-linejoin="round" stroke-miterlimit="4" stroke="#A3A3A3" stroke-width="2"><g><path d="M 10 10L 24 10L 38 10L 38 33L 38 56L 52 56L 64 56"></path><path d="M 58 62.5L 64.5 56L 58 49.5" stroke-dasharray="none"></path></g></g></g><g id="g-root-cu_1d0i00w18zm9z8-stroke" data-item-order="2" data-item-id="cu_1d0i00w18zm9z8" data-item-class="Curve Stroke" data-item-index="none" data-renderer-id="0" transform="translate(619, 85)"><g id="cu_1d0i00w18zm9z8-stroke" fill="none" stroke-linecap="round" stroke-linejoin="round" stroke-miterlimit="4" stroke="#A3A3A3" stroke-width="2"><g><path d="M 10 56L 24 56L 38 56L 38 33L 38 10L 52 10L 64 10"></path><path d="M 58 16.5L 64.5 10L 58 3.5" stroke-dasharray="none"></path></g></g></g></g></g></svg>